<svg width="329" height="46" viewBox="0 0 329 46" fill="none" xmlns="http://www.w3.org/2000/svg">
<path d="M25.6728 43.1364L22.0981 31.8834H8.77424L5.52452 42.5113L9.74916 44.0742V44.6993H0V44.0742L4.22464 42.5113L16.8985 0H17.8735L31.5223 43.1364L35.422 44.0742V44.6993H21.7731V44.0742L25.6728 43.1364ZM15.2128 10.0026L9.09922 30.6917H21.7122L15.2128 10.0026ZM45.4961 25.0066V43.1364L49.3957 44.0742V44.6993H36.3969V44.0742L40.2965 43.1364V17.5046L36.3969 16.5669V15.9417H45.4961V23.4437C46.058 21.9003 46.7283 20.5035 47.5068 19.2531C48.2042 18.1721 49.0505 17.1921 50.0457 16.3129C51.0409 15.4403 52.2325 15.004 53.6204 15.004C54.0943 15.004 54.5479 15.0365 54.9812 15.1017C55.4145 15.1603 55.8072 15.2319 56.1592 15.3166C56.5451 15.4403 56.8904 15.5445 57.1951 15.6291L55.2452 20.3179C54.988 20.1941 54.707 20.0476 54.4023 19.8783C54.1383 19.7546 53.8235 19.6406 53.4579 19.5364C53.0923 19.4322 52.7132 19.3801 52.3205 19.3801C51.1966 19.3801 50.2014 19.6732 49.3348 20.2593C48.4682 20.8388 47.7506 21.4836 47.1819 22.1934C46.4913 23.0269 45.9294 23.9647 45.4961 25.0066ZM72.1438 15.9417C71.4058 15.9417 70.6577 16.1827 69.8995 16.6646C69.1412 17.14 68.4472 17.9312 67.8176 19.0382C67.1947 20.1388 66.6768 21.6073 66.2638 23.4437C65.8508 25.2801 65.6444 27.5724 65.6444 30.3205C65.6444 33.0686 65.8508 35.3609 66.2638 37.1973C66.6768 39.0338 67.1947 40.5023 67.8176 41.6028C68.4472 42.7099 69.1412 43.5011 69.8995 43.9765C70.6577 44.4584 71.4058 44.6993 72.1438 44.6993C72.8818 44.6993 73.6299 44.4584 74.3881 43.9765C75.1464 43.5011 75.8404 42.7099 76.47 41.6028C77.0928 40.5023 77.6108 39.0338 78.0238 37.1973C78.4367 35.3609 78.6432 33.0686 78.6432 30.3205C78.6432 27.5724 78.4367 25.2801 78.0238 23.4437C77.6108 21.6073 77.0928 20.1388 76.47 19.0382C75.8404 17.9312 75.1464 17.14 74.3881 16.6646C73.6299 16.1827 72.8818 15.9417 72.1438 15.9417ZM72.1438 15.004C73.7483 15.004 75.2987 15.3491 76.795 16.0394C78.2844 16.7232 79.6046 17.7228 80.7555 19.0382C81.9065 20.3472 82.8171 21.9524 83.4873 23.854C84.1576 25.749 84.4927 27.9045 84.4927 30.3205C84.4927 32.7365 84.1576 34.892 83.4873 36.7871C82.8171 38.6886 81.9065 40.2939 80.7555 41.6028C79.6046 42.9183 78.2844 43.9179 76.795 44.6017C75.2987 45.2919 73.7483 45.6371 72.1438 45.6371C70.4986 45.6371 68.9381 45.2919 67.4622 44.6017C65.993 43.9179 64.683 42.9183 63.532 41.6028C62.3811 40.2939 61.4705 38.6886 60.8002 36.7871C60.13 34.892 59.7949 32.7365 59.7949 30.3205C59.7949 27.9045 60.13 25.749 60.8002 23.854C61.4705 21.9524 62.3811 20.3472 63.532 19.0382C64.683 17.7228 65.993 16.7232 67.4622 16.0394C68.9381 15.3491 70.4986 15.004 72.1438 15.004ZM89.6923 44.0742L93.5919 43.1364V17.5046L89.6923 16.5669V15.9417H98.7915V19.6927C99.2248 18.8592 99.8104 18.0875 100.548 17.3776C101.151 16.7981 101.93 16.2576 102.884 15.7561C103.839 15.2547 104.966 15.004 106.266 15.004C107.911 15.004 109.265 15.297 110.328 15.8831C111.391 16.4627 112.247 17.1074 112.897 17.8172C113.676 18.6508 114.282 19.5885 114.715 20.6305C115.277 19.5885 115.947 18.6508 116.726 17.8172C117.423 17.1074 118.27 16.4627 119.265 15.8831C120.26 15.297 121.452 15.004 122.839 15.004C124.139 15.004 125.341 15.2319 126.445 15.6877C127.548 16.1501 128.513 16.7883 129.339 17.6023C130.165 18.4098 130.805 19.3866 131.258 20.5328C131.712 21.6789 131.939 22.9618 131.939 24.3815V43.1364L135.838 44.0742V44.6993H123.164V44.0742L126.739 43.1364V24.3815C126.739 21.4249 126.252 19.3313 125.277 18.1005C124.302 16.8697 123.164 16.2543 121.865 16.2543C120.781 16.2543 119.85 16.5473 119.072 17.1334C118.293 17.713 117.62 18.3577 117.051 19.0675C116.401 19.9011 115.839 20.8388 115.365 21.8808V43.1364L118.94 44.0742V44.6993H106.591V44.0742L110.166 43.1364V24.3815C110.166 21.4249 109.678 19.3313 108.703 18.1005C107.728 16.8697 106.591 16.2543 105.291 16.2543C104.208 16.2543 103.277 16.5473 102.498 17.1334C101.72 17.713 101.046 18.3577 100.477 19.0675C99.8274 19.9011 99.2654 20.8388 98.7915 21.8808V43.1364L102.366 44.0742V44.6993H89.6923V44.0742ZM156.962 38.7603V29.3828C153.19 29.3828 150.408 30.1838 148.614 31.7858C146.813 33.3943 145.912 35.6149 145.912 38.4477C145.912 40.3232 146.39 41.7819 147.344 42.8238C148.299 43.8658 149.338 44.3868 150.462 44.3868C151.505 44.3868 152.425 44.0937 153.224 43.5076C154.023 42.928 154.707 42.2833 155.276 41.5735C155.926 40.779 156.488 39.8413 156.962 38.7603ZM152.087 15.9417C150.787 15.9417 149.704 16.3683 148.837 17.2214C147.971 18.0744 147.537 19.2108 147.537 20.6305C147.537 20.9626 147.547 21.2556 147.568 21.5096C147.588 21.7571 147.622 21.985 147.669 22.1934C147.71 22.4018 147.774 22.6102 147.862 22.8185L142.663 24.0689C142.575 23.9451 142.51 23.7791 142.47 23.5707C142.422 23.3623 142.389 23.1311 142.368 22.8771C142.348 22.6297 142.338 22.2976 142.338 21.8808C142.338 21.0082 142.554 20.1648 142.988 19.3508C143.421 18.5368 144.061 17.8074 144.907 17.1627C145.753 16.518 146.772 15.9971 147.964 15.5998C149.155 15.2026 150.53 15.004 152.087 15.004C155.208 15.004 157.666 15.8571 159.46 17.5632C161.261 19.2759 162.161 21.5487 162.161 24.3815V43.1364L166.061 44.0742V44.6993H156.962V40.9483C156.488 41.821 155.882 42.6122 155.144 43.322C154.534 43.9081 153.766 44.4388 152.838 44.9142C151.904 45.3961 150.787 45.6371 149.487 45.6371C146.366 45.6371 144.017 44.9273 142.439 43.5076C140.855 42.0945 140.063 40.1994 140.063 37.8225C140.063 36.6568 140.398 35.4912 141.068 34.3255C141.739 33.1533 142.758 32.1114 144.125 31.1997C145.493 30.2815 147.236 29.5391 149.355 28.9725C151.481 28.4125 154.016 28.1324 156.962 28.1324V24.3815C156.962 21.2556 156.474 19.0675 155.499 17.8172C154.524 16.5669 153.387 15.9417 152.087 15.9417ZM208.957 22.1934H195.633V43.1364L199.533 44.0742V44.6993H186.209V44.0742L190.109 43.1364V2.50066L186.209 1.56291V0.937747H199.533V1.56291L195.633 2.50066V20.943H208.957V2.50066L205.057 1.56291V0.937747H218.381V1.56291L214.482 2.50066V43.1364L218.381 44.0742V44.6993H205.057V44.0742L208.957 43.1364V22.1934ZM236.58 15.9417C235.842 15.9417 235.094 16.1827 234.335 16.6646C233.577 17.14 232.883 17.9312 232.253 19.0382C231.631 20.1388 231.113 21.6073 230.7 23.4437C230.287 25.2801 230.08 27.5724 230.08 30.3205C230.08 33.0686 230.287 35.3609 230.7 37.1973C231.113 39.0338 231.631 40.5023 232.253 41.6028C232.883 42.7099 233.577 43.5011 234.335 43.9765C235.094 44.4584 235.842 44.6993 236.58 44.6993C237.318 44.6993 238.066 44.4584 238.824 43.9765C239.582 43.5011 240.276 42.7099 240.906 41.6028C241.529 40.5023 242.047 39.0338 242.46 37.1973C242.873 35.3609 243.079 33.0686 243.079 30.3205C243.079 27.5724 242.873 25.2801 242.46 23.4437C242.047 21.6073 241.529 20.1388 240.906 19.0382C240.276 17.9312 239.582 17.14 238.824 16.6646C238.066 16.1827 237.318 15.9417 236.58 15.9417ZM236.58 15.004C238.184 15.004 239.735 15.3491 241.231 16.0394C242.72 16.7232 244.04 17.7228 245.191 19.0382C246.342 20.3472 247.253 21.9524 247.923 23.854C248.593 25.749 248.929 27.9045 248.929 30.3205C248.929 32.7365 248.593 34.892 247.923 36.7871C247.253 38.6886 246.342 40.2939 245.191 41.6028C244.04 42.9183 242.72 43.9179 241.231 44.6017C239.735 45.2919 238.184 45.6371 236.58 45.6371C234.934 45.6371 233.374 45.2919 231.898 44.6017C230.429 43.9179 229.119 42.9183 227.968 41.6028C226.817 40.2939 225.906 38.6886 225.236 36.7871C224.566 34.892 224.231 32.7365 224.231 30.3205C224.231 27.9045 224.566 25.749 225.236 23.854C225.906 21.9524 226.817 20.3472 227.968 19.0382C229.119 17.7228 230.429 16.7232 231.898 16.0394C233.374 15.3491 234.934 15.004 236.58 15.004ZM254.128 44.0742L258.028 43.1364V17.5046L254.128 16.5669V15.9417H263.227V19.6927C263.661 18.8592 264.246 18.0875 264.984 17.3776C265.587 16.7981 266.365 16.2576 267.32 15.7561C268.275 15.2547 269.402 15.004 270.702 15.004C272.347 15.004 273.701 15.297 274.764 15.8831C275.827 16.4627 276.683 17.1074 277.333 17.8172C278.112 18.6508 278.718 19.5885 279.151 20.6305C279.713 19.5885 280.383 18.6508 281.162 17.8172C281.859 17.1074 282.705 16.4627 283.701 15.8831C284.696 15.297 285.887 15.004 287.275 15.004C288.575 15.004 289.777 15.2319 290.88 15.6877C291.984 16.1501 292.949 16.7883 293.775 17.6023C294.601 18.4098 295.24 19.3866 295.694 20.5328C296.148 21.6789 296.374 22.9618 296.374 24.3815V43.1364L300.274 44.0742V44.6993H287.6V44.0742L291.175 43.1364V24.3815C291.175 21.4249 290.687 19.3313 289.713 18.1005C288.738 16.8697 287.6 16.2543 286.3 16.2543C285.217 16.2543 284.286 16.5473 283.508 17.1334C282.729 17.713 282.055 18.3577 281.487 19.0675C280.837 19.9011 280.275 20.8388 279.801 21.8808V43.1364L283.376 44.0742V44.6993H271.027V44.0742L274.601 43.1364V24.3815C274.601 21.4249 274.114 19.3313 273.139 18.1005C272.164 16.8697 271.027 16.2543 269.727 16.2543C268.644 16.2543 267.713 16.5473 266.934 17.1334C266.155 17.713 265.482 18.3577 264.913 19.0675C264.263 19.9011 263.701 20.8388 263.227 21.8808V43.1364L266.802 44.0742V44.6993H254.128V44.0742ZM328.222 30.3205H310.673C310.673 32.9905 310.88 35.2209 311.293 37.0118C311.706 38.8026 312.247 40.2515 312.918 41.3586C313.588 42.4592 314.346 43.2406 315.192 43.703C316.039 44.1588 316.915 44.3868 317.823 44.3868C318.947 44.3868 320.009 44.1784 321.011 43.7616C322.007 43.3448 322.894 42.7815 323.672 42.0717C324.451 41.3619 325.091 40.5088 325.592 39.5124C326.086 38.5095 326.421 37.4253 326.597 36.2596H327.572C327.396 37.5946 327.017 38.8352 326.434 39.9813C325.852 41.1274 325.104 42.1173 324.19 42.9508C323.283 43.7844 322.233 44.4388 321.042 44.9142C319.85 45.3961 318.561 45.6371 317.173 45.6371C315.528 45.6371 313.967 45.2919 312.491 44.6017C311.022 43.9179 309.712 42.9183 308.561 41.6028C307.41 40.2939 306.499 38.6886 305.829 36.7871C305.159 34.892 304.824 32.7365 304.824 30.3205C304.824 27.8199 305.149 25.6122 305.799 23.6977C306.449 21.7766 307.305 20.1811 308.368 18.9113C309.431 17.6414 310.667 16.6711 312.075 16.0003C313.483 15.3361 314.966 15.004 316.523 15.004C318.08 15.004 319.563 15.3361 320.971 16.0003C322.379 16.6711 323.615 17.6414 324.678 18.9113C325.74 20.1811 326.597 21.7766 327.247 23.6977C327.897 25.6122 328.222 27.8199 328.222 30.3205ZM316.523 15.9417C315.873 15.9417 315.223 16.1403 314.573 16.5376C313.923 16.9348 313.317 17.6316 312.755 18.628C312.193 19.6308 311.726 20.9756 311.354 22.6622C310.988 24.3489 310.761 26.4849 310.673 29.0702H322.372C322.284 26.4849 322.057 24.3489 321.692 22.6622C321.32 20.9756 320.852 19.6308 320.29 18.628C319.728 17.6316 319.123 16.9348 318.473 16.5376C317.823 16.1403 317.173 15.9417 316.523 15.9417Z" fill="black"/>
</svg>
