<!DOCTYPE svg PUBLIC "-//W3C//DTD SVG 1.1//EN" "http://www.w3.org/Graphics/SVG/1.1/DTD/svg11.dtd">
<!-- Uploaded to: SVG Repo, www.svgrepo.com, Transformed by: SVG Repo Mixer Tools -->
<svg fill="#9b7776" height="64px" width="64px" version="1.1" id="Layer_1" xmlns="http://www.w3.org/2000/svg" xmlns:xlink="http://www.w3.org/1999/xlink" viewBox="0 0 512 512" xml:space="preserve" transform="rotate(0)" stroke="#9b7776">
<g id="SVGRepo_bgCarrier" stroke-width="0"/>
<g id="SVGRepo_tracerCarrier" stroke-linecap="round" stroke-linejoin="round" stroke="#CCCCCC" stroke-width="22.528"> <g> <g> <g> <path d="M78.102,82.225h8.678c4.799,0,8.678-3.879,8.678-8.678c0-4.799-3.879-8.678-8.678-8.678h-8.678 c-4.799,0-8.678,3.879-8.678,8.678C69.424,78.346,73.303,82.225,78.102,82.225z"/> <path d="M43.39,82.225h8.678c4.799,0,8.678-3.879,8.678-8.678c0-4.799-3.879-8.678-8.678-8.678H43.39 c-4.799,0-8.678,3.879-8.678,8.678C34.712,78.346,38.591,82.225,43.39,82.225z"/> <path d="M112.814,82.225h8.678c4.799,0,8.678-3.879,8.678-8.678c0-4.799-3.879-8.678-8.678-8.678h-8.678 c-4.799,0-8.678,3.879-8.678,8.678C104.136,78.346,108.015,82.225,112.814,82.225z"/> <path d="M17.356,82.225c4.799,0,8.678-3.879,8.678-8.678c0-4.799-3.879-8.678-8.678-8.678H8.678C3.879,64.869,0,68.748,0,73.547 c0,4.799,3.879,8.678,8.678,8.678H17.356z"/> <path d="M111.135,54.107l8.478,1.883c0.634,0.13,1.258,0.2,1.883,0.2c3.975,0,7.567-2.751,8.47-6.795 c1.033-4.677-1.918-9.311-6.595-10.353l-8.47-1.883c-4.669-0.972-9.32,1.918-10.362,6.595 C103.507,48.432,106.458,53.066,111.135,54.107z"/> <path d="M77.254,46.573l8.478,1.883c0.633,0.13,1.258,0.2,1.883,0.2c3.974,0,7.567-2.751,8.47-6.795 c1.033-4.677-1.918-9.311-6.595-10.353l-8.47-1.883c-4.643-0.963-9.32,1.918-10.361,6.595 C69.626,40.897,72.576,45.531,77.254,46.573z"/> <path d="M43.365,39.047l8.478,1.883c0.633,0.13,1.258,0.2,1.883,0.2c3.975,0,7.567-2.751,8.47-6.795 c1.033-4.677-1.918-9.311-6.595-10.353l-8.47-1.883c-4.643-0.963-9.32,1.918-10.362,6.595 C35.737,33.372,38.687,38.006,43.365,39.047z"/> <path d="M119.61,91.106l-8.478,1.883c-4.677,1.041-7.619,5.675-6.587,10.353c0.894,4.044,4.478,6.795,8.461,6.795 c0.633,0,1.258-0.061,1.892-0.2l8.478-1.883c4.677-1.041,7.619-5.675,6.587-10.353C128.922,93.024,124.288,90.126,119.61,91.106z "/> <path d="M51.839,106.166l-8.478,1.883c-4.677,1.041-7.619,5.675-6.587,10.353c0.894,4.044,4.478,6.795,8.461,6.795 c0.634,0,1.258-0.061,1.892-0.2l8.478-1.883c4.677-1.041,7.619-5.675,6.587-10.353C61.15,108.084,56.507,105.177,51.839,106.166z "/> <path d="M85.729,98.64l-8.478,1.883c-4.677,1.041-7.619,5.675-6.587,10.353c0.894,4.044,4.478,6.795,8.461,6.795 c0.633,0,1.258-0.061,1.892-0.2l8.478-1.883c4.677-1.041,7.619-5.675,6.587-10.353C95.04,100.558,90.398,97.643,85.729,98.64z"/> <path d="M468.61,231.13v-53.448c0-57.422-46.714-104.136-104.136-104.136H225.627V47.513c0-4.799-3.879-8.678-8.678-8.678 h-52.068c-4.799,0-8.678,3.879-8.678,8.678v60.746h-8.678c-4.799,0-8.678,3.879-8.678,8.678v52.068v48.475L11.221,345.107 c-1.631,1.623-2.543,3.827-2.543,6.135v22.137l3.94-3.003c44.128-31.805,116.51-44.917,169.62-16.887V177.683h17.356v186.264 c42.991,28.854,114.714,39.78,159.813,7.342l13.746-10.7v-9.346c0-2.308-0.911-4.513-2.543-6.135L242.983,217.463v-48.458 v-52.068c0-4.799-3.879-8.678-8.678-8.678h-8.678V90.903h138.847c47.85,0,86.78,38.929,86.78,86.78v53.448 c-25.253,7.489-43.39,47.234-43.39,98.417c0,56.893,22.38,99.797,52.068,99.797c29.687,0,52.068-42.904,52.068-99.797 C512,278.365,493.863,238.62,468.61,231.13z M173.559,90.903h8.678c4.799,0,8.678-3.879,8.678-8.678 c0-4.799-3.879-8.678-8.678-8.678h-8.678V56.191h34.712v52.068h-34.712V90.903z M225.627,160.327h-26.034h-17.356h-26.034 v-34.712h8.678h52.068h8.678V160.327z"/> <path d="M187.856,377.064c-0.703-0.243-1.38-0.599-2.013-1.05c-41.724-30.104-114.792-26.355-162.885,8.305L8.682,395.201v28.993 c0,36.335,29.557,65.892,65.892,65.892h232.682c36.335,0,65.9-29.557,65.9-65.892v-41.628l-3.35,2.612 C316.967,423.231,236.514,410.908,187.856,377.064z"/> </g> </g> </g> </g>
<g id="SVGRepo_iconCarrier"> <g> <g> <g> <path d="M78.102,82.225h8.678c4.799,0,8.678-3.879,8.678-8.678c0-4.799-3.879-8.678-8.678-8.678h-8.678 c-4.799,0-8.678,3.879-8.678,8.678C69.424,78.346,73.303,82.225,78.102,82.225z"/> <path d="M43.39,82.225h8.678c4.799,0,8.678-3.879,8.678-8.678c0-4.799-3.879-8.678-8.678-8.678H43.39 c-4.799,0-8.678,3.879-8.678,8.678C34.712,78.346,38.591,82.225,43.39,82.225z"/> <path d="M112.814,82.225h8.678c4.799,0,8.678-3.879,8.678-8.678c0-4.799-3.879-8.678-8.678-8.678h-8.678 c-4.799,0-8.678,3.879-8.678,8.678C104.136,78.346,108.015,82.225,112.814,82.225z"/> <path d="M17.356,82.225c4.799,0,8.678-3.879,8.678-8.678c0-4.799-3.879-8.678-8.678-8.678H8.678C3.879,64.869,0,68.748,0,73.547 c0,4.799,3.879,8.678,8.678,8.678H17.356z"/> <path d="M111.135,54.107l8.478,1.883c0.634,0.13,1.258,0.2,1.883,0.2c3.975,0,7.567-2.751,8.47-6.795 c1.033-4.677-1.918-9.311-6.595-10.353l-8.47-1.883c-4.669-0.972-9.32,1.918-10.362,6.595 C103.507,48.432,106.458,53.066,111.135,54.107z"/> <path d="M77.254,46.573l8.478,1.883c0.633,0.13,1.258,0.2,1.883,0.2c3.974,0,7.567-2.751,8.47-6.795 c1.033-4.677-1.918-9.311-6.595-10.353l-8.47-1.883c-4.643-0.963-9.32,1.918-10.361,6.595 C69.626,40.897,72.576,45.531,77.254,46.573z"/> <path d="M43.365,39.047l8.478,1.883c0.633,0.13,1.258,0.2,1.883,0.2c3.975,0,7.567-2.751,8.47-6.795 c1.033-4.677-1.918-9.311-6.595-10.353l-8.47-1.883c-4.643-0.963-9.32,1.918-10.362,6.595 C35.737,33.372,38.687,38.006,43.365,39.047z"/> <path d="M119.61,91.106l-8.478,1.883c-4.677,1.041-7.619,5.675-6.587,10.353c0.894,4.044,4.478,6.795,8.461,6.795 c0.633,0,1.258-0.061,1.892-0.2l8.478-1.883c4.677-1.041,7.619-5.675,6.587-10.353C128.922,93.024,124.288,90.126,119.61,91.106z "/> <path d="M51.839,106.166l-8.478,1.883c-4.677,1.041-7.619,5.675-6.587,10.353c0.894,4.044,4.478,6.795,8.461,6.795 c0.634,0,1.258-0.061,1.892-0.2l8.478-1.883c4.677-1.041,7.619-5.675,6.587-10.353C61.15,108.084,56.507,105.177,51.839,106.166z "/> <path d="M85.729,98.64l-8.478,1.883c-4.677,1.041-7.619,5.675-6.587,10.353c0.894,4.044,4.478,6.795,8.461,6.795 c0.633,0,1.258-0.061,1.892-0.2l8.478-1.883c4.677-1.041,7.619-5.675,6.587-10.353C95.04,100.558,90.398,97.643,85.729,98.64z"/> <path d="M468.61,231.13v-53.448c0-57.422-46.714-104.136-104.136-104.136H225.627V47.513c0-4.799-3.879-8.678-8.678-8.678 h-52.068c-4.799,0-8.678,3.879-8.678,8.678v60.746h-8.678c-4.799,0-8.678,3.879-8.678,8.678v52.068v48.475L11.221,345.107 c-1.631,1.623-2.543,3.827-2.543,6.135v22.137l3.94-3.003c44.128-31.805,116.51-44.917,169.62-16.887V177.683h17.356v186.264 c42.991,28.854,114.714,39.78,159.813,7.342l13.746-10.7v-9.346c0-2.308-0.911-4.513-2.543-6.135L242.983,217.463v-48.458 v-52.068c0-4.799-3.879-8.678-8.678-8.678h-8.678V90.903h138.847c47.85,0,86.78,38.929,86.78,86.78v53.448 c-25.253,7.489-43.39,47.234-43.39,98.417c0,56.893,22.38,99.797,52.068,99.797c29.687,0,52.068-42.904,52.068-99.797 C512,278.365,493.863,238.62,468.61,231.13z M173.559,90.903h8.678c4.799,0,8.678-3.879,8.678-8.678 c0-4.799-3.879-8.678-8.678-8.678h-8.678V56.191h34.712v52.068h-34.712V90.903z M225.627,160.327h-26.034h-17.356h-26.034 v-34.712h8.678h52.068h8.678V160.327z"/> <path d="M187.856,377.064c-0.703-0.243-1.38-0.599-2.013-1.05c-41.724-30.104-114.792-26.355-162.885,8.305L8.682,395.201v28.993 c0,36.335,29.557,65.892,65.892,65.892h232.682c36.335,0,65.9-29.557,65.9-65.892v-41.628l-3.35,2.612 C316.967,423.231,236.514,410.908,187.856,377.064z"/> </g> </g> </g> </g>
</svg>