<?xml version="1.0" encoding="iso-8859-1"?>
<!-- Uploaded to: SVG Repo, www.svgrepo.com, Generator: SVG Repo Mixer Tools -->
<svg height="800px" width="800px" version="1.1" id="Layer_1" xmlns="http://www.w3.org/2000/svg" xmlns:xlink="http://www.w3.org/1999/xlink" 
	 viewBox="0 0 512.002 512.002" xml:space="preserve">
<g transform="translate(0 -1)">
	<path style="fill:#2C2933;" d="M123.471,304.937C394.92,363.428,512,292.199,512,292.199v26.483
		c-141.056,87.605-377.785,18.211-379.586,17.752l-8.828,8.828H0v-44.138l85.442-0.097
		C98.216,301.026,110.98,302.245,123.471,304.937"/>
	<path style="fill:#3E3B43;" d="M512.002,292.325c-2.763-16.534-26.483-26.509-26.483-26.509s-141.974-2.207-185.379-52.966
		s-88.276-61.793-88.276-61.793l-17.655,17.655C83.131,276.85,17.657,186.367,17.657,186.367
		c-33.439,51.447-8.872,114.635-8.828,114.741l76.615-0.088c12.774,0,25.538,1.227,38.02,3.919
		c271.457,58.492,388.537-12.747,388.537-12.747V292.325z"/>
	<path style="fill:#2C2933;" d="M310.51,222.666L310.51,222.666c-3.858-3.063-7.371-6.312-10.372-9.816
		c-43.405-50.759-88.276-61.793-88.276-61.793l-17.655,17.655c-5.87,5.711-11.582,10.752-17.196,15.404l55.314,45.859
		C255.929,249.546,290.94,246.271,310.51,222.666"/>
	<g>
		<path style="fill:#3E3B43;" d="M229.519,195.191c-2.26,0-4.52-0.865-6.241-2.586c-3.452-3.452-3.452-9.031,0-12.482l17.655-17.655
			c3.452-3.452,9.031-3.452,12.482,0c3.452,3.452,3.452,9.031,0,12.482l-17.655,17.655
			C234.039,194.326,231.779,195.191,229.519,195.191"/>
		<path style="fill:#3E3B43;" d="M256.002,221.661c-2.26,0-4.511-0.865-6.241-2.578c-3.443-3.452-3.452-9.039-0.009-12.491
			l22.334-22.36c3.443-3.46,9.031-3.46,12.482-0.009c3.452,3.443,3.452,9.031,0.009,12.482l-22.325,22.369
			C260.521,220.796,258.262,221.661,256.002,221.661"/>
	</g>
	<path style="fill:#2C2933;" d="M309.61,221.89c0.309,0.256,0.583,0.53,0.9,0.777c-15.369,18.538-40.227,24.47-61.634,16.719
		c-24.505,26.951-43.802,54.122-56.258,78.248c54.122,8.174,100.864,10.893,140.544,10.266c6.488-5.826,12.968-11.864,19.385-18.282
		c17.629-17.629,33.086-35.672,45.983-53.177C365.736,250.12,331.255,239.527,309.61,221.89"/>
</g>
</svg>